<?xml version="1.0" encoding="utf-8"?><svg xmlns="http://www.w3.org/2000/svg" xmlns:xlink="http://www.w3.org/1999/xlink"><symbol id="icon-download" viewBox="0 0 32 30.7"><style>.ast0,.ast1{fill:none;stroke:#fff;stroke-linecap:round;stroke-miterlimit:10}.ast1{stroke-linejoin:round}</style><path class="ast0" d="M16 12.8v17"/><path class="ast1" d="M20.5 25.8l-4.6 4.4-4.4-4.4m0-6.5h-7s-4-.6-4-5.5 5-6 5-6-.4-2.3 1-3c2.6-1.4 4 1 4 1s3.1-6.9 9-5 5 8 5 8 7.1-.5 7 5.3c-.1 5.7-5 5.2-5 5.2h-6"/></symbol><symbol id="sec5-img1" viewBox="0 0 160.7 135.7"><style>.bst0{stroke:#4eae49;stroke-width:3;stroke-miterlimit:10}.bst0,.bst1{fill:#fff}.bst2,.bst3{fill:none;stroke:#4eae49;stroke-width:3;stroke-miterlimit:10}.bst3{fill:#fff;stroke-linecap:round}.bst4{fill:none}.bst4,.bst5,.bst6{stroke:#4eae49;stroke-width:3;stroke-linecap:round;stroke-miterlimit:10}.bst5{stroke-dasharray:5.5,5.5;fill:none}.bst6{fill:#fff;stroke-linejoin:round}.bst7{fill:#4eae49}</style><path class="bst0" d="M79.5 15.7L55.3 3.1c-1-.5-2.2.4-1.9 1.6l16.1 52v3.8c0 2.3 1.9 4.2 4.2 4.2h48.8c2.3 0 4.1-1.8 4.1-4.1v-3.9l15.9-52.3c.4-1.3-1-2.5-2.3-1.8l-22.6 12.2"/><path class="bst1" d="M83.8 26.7l15-25.5 13.5 25.5-27 1.5"/><path class="bst2" d="M54.5 3.7l21.4 27.9c.8 1 2.3 1 3-.1l17.9-29c.7-1.2 2.5-1.2 3.2.1l16.1 29.7c.6 1.2 2.3 1.3 3.1.2l22.3-28.8"/><circle class="bst2" cx="98" cy="39.2" r="8.5"/><path class="bst3" d="M69.5 56.9H84"/><path class="bst1" d="M88.5 57.1H111"/><path class="bst4" d="M88.5 57.1h3"/><path class="bst5" d="M97 57.1h8.3"/><path class="bst4" d="M108 57.1h3"/><path class="bst3" d="M115 56.8l10.5-.2"/><path class="bst6" d="M32.5 119.7h15l37 13.5c4.5 1.6 9.4 1.3 13.6-.9l55.4-28.6s8-4 5-10-13-3-13-3l-35 13-35-12-22-12h-19"/><path class="bst6" d="M33.5 79.7h24l24 10h21s11-.1 11 8c0 9-9 8-9 8h-25s-8-2-9 4"/><path class="bst3" d="M1.5 74.7h26.3c2.6 0 4.8 2.1 4.8 4.8V121c0 2.6-2.1 4.8-4.8 4.8H2.5"/><circle class="bst1" cx="22.5" cy="114.7" r="1.5"/><path class="bst7" d="M22.5 111.7c-1.7 0-3 1.3-3 3s1.3 3 3 3 3-1.3 3-3-1.3-3-3-3z"/><g><circle class="bst1" cx="13.5" cy="114.7" r="1.5"/><path class="bst7" d="M13.5 111.7c-1.7 0-3 1.3-3 3s1.3 3 3 3 3-1.3 3-3-1.3-3-3-3z"/></g></symbol><symbol id="sec5-img2" viewBox="0 0 160 143"><style>.cst0{fill:#fff}.cst1,.cst2{fill:#fff;stroke:#4eae49;stroke-width:3;stroke-linecap:round;stroke-miterlimit:10}.cst2{stroke-linejoin:round}.cst3{fill:#4eae49}</style><path class="cst0" d="M15.5 107.5h135v25h-135z"/><path class="cst1" d="M16.5 119.5V44.7c0-3.4 2.8-6.2 6.2-6.2h121.7c3.4 0 6.2 2.8 6.2 6.2v74.8"/><path class="cst1" d="M40.5 113.5h-17v-66h115v66h-91"/><path class="cst2" d="M116.5 113h-69v-11.5h66"/><path class="cst1" d="M56.5 97.5l11-11v-39l-11-12v-5h14v-8h19v8h13v6l-11 11v38l11 12"/><path class="cst1" d="M63.5 1.5h-12v16l6 6h46l6-7v-15h-14"/><path class="cst1" d="M58.5 11.5h14v-10h16v10h11m-7 36H73m5.5-17h12m-12 55h12"/><circle class="cst0" cx="79" cy="73" r="1"/><path class="cst3" d="M79 70.5c-1.4 0-2.5 1.1-2.5 2.5s1.1 2.5 2.5 2.5 2.5-1.1 2.5-2.5-1.1-2.5-2.5-2.5z"/><circle class="cst0" cx="79" cy="65" r="1"/><path class="cst3" d="M79 62.5c-1.4 0-2.5 1.1-2.5 2.5s1.1 2.5 2.5 2.5 2.5-1.1 2.5-2.5-1.1-2.5-2.5-2.5z"/><circle class="cst0" cx="79" cy="57" r="1"/><path class="cst3" d="M79 54.5c-1.4 0-2.5 1.1-2.5 2.5s1.1 2.5 2.5 2.5 2.5-1.1 2.5-2.5-1.1-2.5-2.5-2.5z"/><path class="cst1" d="M66.5 131.5l-5-6h-60v6l11 10h135l11-9v-7h-62l-6 6z"/></symbol><symbol id="sec5-img3" viewBox="0 0 149 163"><style>.dst0{stroke:#4eae49;stroke-width:3;stroke-linecap:round;stroke-miterlimit:10}.dst0,.dst1{fill:#fff}.dst2{fill:#4eae49}.dst3{fill:none;stroke:#4eae49;stroke-width:3;stroke-linecap:round;stroke-miterlimit:10}</style><path class="dst0" d="M119.8 116.5h-93c-6.6 0-12-5.4-12-12v-58c0-6.6 5.4-12 12-12h93c6.6 0 12 5.4 12 12v58c0 6.6-5.5 12-12 12z"/><path class="dst0" d="M117.3 105.5h-88c-3 0-5.5-2.5-5.5-5.5V50c0-3 2.5-5.5 5.5-5.5h88c3 0 5.5 2.5 5.5 5.5v50c0 3-2.5 5.5-5.5 5.5z"/><path class="dst1" d="M64.3 99.5h19v11h-19z"/><circle class="dst1" cx="68.8" cy="105.5" r="1.5"/><path class="dst2" d="M68.8 104c-.8 0-1.5.7-1.5 1.5s.7 1.5 1.5 1.5 1.5-.7 1.5-1.5-.7-1.5-1.5-1.5z"/><circle class="dst1" cx="73.8" cy="105.5" r="1.5"/><path class="dst2" d="M73.8 104c-.8 0-1.5.7-1.5 1.5s.7 1.5 1.5 1.5 1.5-.7 1.5-1.5-.7-1.5-1.5-1.5z"/><circle class="dst1" cx="78.8" cy="105.5" r="1.5"/><path class="dst2" d="M78.8 104c-.8 0-1.5.7-1.5 1.5s.7 1.5 1.5 1.5 1.5-.7 1.5-1.5-.7-1.5-1.5-1.5z"/><path class="dst3" d="M53.8 14.5l18 19 30-32"/><path class="dst0" d="M72.3 58.1l5.5 11.3 12.4 1.8-9 8.7 2.1 12.4-11-5.9-11.1 5.9 2.1-12.4-9-8.7 12.4-1.8zm71.5 84.4H5.3c-2.1 0-3.8-1.7-3.8-3.8v-7.5c0-2.1 1.7-3.8 3.8-3.8h138.5c2.1 0 3.8 1.7 3.8 3.8v7.5c-.1 2.1-1.8 3.8-3.8 3.8zM15 161.5v-19h119v18"/><path class="dst0" d="M52.8 116.5h42v11h-42z"/></symbol><symbol id="sec5-img4" viewBox="0 0 115 108.1"><style>.est0,.est1{fill:#fff}.est1{stroke:#4eae49;stroke-width:3;stroke-linecap:round;stroke-miterlimit:10}</style><path class="est0" d="M76.5 14.6h28v60.5h-28z"/><path class="est1" d="M105.5 14.6h8v52s-2 7.5-8.5 7.5-6.5-6.5-6.5-6.5-1-42-1-55-12-11-12-11h-72c-13 0-12 13-12 13v92h76"/><path class="est1" d="M77.5 106.6v-94s0-10.9 11-10.9M63.9 33.6h-50c-.6 0-1-.4-1-1v-1c0-.5.4-1 1-1h50c.5 0 1 .4 1 1v1c0 .6-.5 1-1 1zm0 13h-50c-.6 0-1-.4-1-1v-1c0-.5.4-1 1-1h50c.5 0 1 .5 1 1v1c0 .6-.5 1-1 1zm-.4 13h-50c-.5 0-1-.4-1-1v-1c0-.5.4-1 1-1h50c.5 0 1 .5 1 1v1c0 .6-.4 1-1 1zm-28 20.7s-6.8-7.1 2.9-4.7c9.7 2.4 1.9 12.9 1 12.3-1-.6 8.8-.6 8.8-.6l3.9-10L56 89.1s1.9-3.5 2.9-5.9c1-2.4 2.9-.6 1.9-1.2"/></symbol><symbol id="sec5-img5" viewBox="0 0 135.2 144"><style>.fst0,.fst1{fill:#fff}.fst1{stroke:#4eae49;stroke-width:3;stroke-linecap:round;stroke-miterlimit:10}</style><path class="fst0" d="M39.5 142.3v-30.1l-16.7.5-9.5-4.3-.4-5.6V77.9l91 2.6-6 27.4V144l-57.6-2.6"/><path class="fst1" d="M43.8 113.1h-18s-13.7-.9-13.7-9.4v-24H4.5c-2.1 0-3.6-2.2-2.7-4.1l12-28.5S10.4 4.2 54.1 3.3"/><path class="fst1" d="M34.3 56.4S31.7 1.5 78.9 1.5s45.5 47.2 45.5 47.2l9 25.6c.6 1.8-.7 3.6-2.6 3.6h-8.2v24s1.7 11.2-10.3 11.2H91.7"/><path class="fst1" d="M103 53s-.9 30.9-17.2 50.6c-3.2 3.9-2.6 36.1-2.6 36.1m14.2-26.2v26.2m-58.3-26.2v26.2m29.4-97.6l3 6.1c.2.4.5.6 1 .7l6.7 1c1 .2 1.5 1.4.7 2.2L75 56.7c-.3.3-.4.7-.4 1.1l1.1 6.7c.2 1-.9 1.8-1.9 1.3l-6-3.1c-.4-.2-.8-.2-1.2 0l-6 3.1c-.9.5-2-.3-1.9-1.3l1.1-6.7c.1-.4-.1-.8-.4-1.1L54.9 52c-.8-.7-.3-2 .7-2.2l6.7-1c.4-.1.8-.3 1-.7l3-6.1c.4-.9 1.8-.9 2.2.1z"/><path class="fst0" d="M26.8 63.5h27v27h-27z"/></symbol><symbol id="sec5-img6" viewBox="0 0 111.5 132.3"><style>.gst0{stroke:#4eae49;stroke-width:3;stroke-linecap:round;stroke-miterlimit:10}.gst0,.gst1{fill:#fff}.gst2{fill:#4eae49}</style><path class="gst0" d="M1.5 1.5H110v129.3H1.5z"/><path class="gst0" d="M1.5 1.5H110v18.2H1.5z"/><circle class="gst1" cx="102.2" cy="10.2" r="1.1"/><path class="gst2" d="M102.2 7.6c-1.4 0-2.6 1.2-2.6 2.6s1.2 2.6 2.6 2.6c1.4 0 2.6-1.2 2.6-2.6s-1.2-2.6-2.6-2.6z"/><circle class="gst1" cx="93.5" cy="10.2" r="1.1"/><path class="gst2" d="M93.5 7.6c-1.4 0-2.6 1.2-2.6 2.6s1.2 2.6 2.6 2.6 2.6-1.2 2.6-2.6-1.2-2.6-2.6-2.6z"/><circle class="gst1" cx="84.8" cy="10.2" r="1.1"/><path class="gst2" d="M84.8 7.6c-1.4 0-2.6 1.2-2.6 2.6s1.2 2.6 2.6 2.6 2.6-1.2 2.6-2.6-1.1-2.6-2.6-2.6z"/><path class="gst1" d="M55.8 104.6c-17.8 0-32.4-14.5-32.4-32.4s14.5-32.4 32.4-32.4 32.4 14.5 32.4 32.4-14.6 32.4-32.4 32.4z"/><path class="gst2" d="M55.8 41.4c17 0 30.9 13.8 30.9 30.9s-13.8 30.9-30.9 30.9-30.9-13.9-30.9-31 13.8-30.8 30.9-30.8m0-3c-18.7 0-33.9 15.2-33.9 33.9s15.2 33.9 33.9 33.9S89.7 91 89.7 72.3 74.4 38.4 55.8 38.4z"/><path class="gst0" d="M23.2 71.8s9.5-11.3 22.6-6.1 10.4 8.7 21.7 12.2 20-4.3 20-4.3"/></symbol></svg>