<?xml version="1.0" encoding="utf-8"?>
<!-- Generator: Adobe Illustrator 21.0.2, SVG Export Plug-In . SVG Version: 6.00 Build 0)  -->
<svg version="1.1" id="Layer_1" xmlns="http://www.w3.org/2000/svg" xmlns:xlink="http://www.w3.org/1999/xlink" x="0px" y="0px"
	 width="160.7px" height="135.7px" viewBox="0 0 160.7 135.7" style="enable-background:new 0 0 160.7 135.7;" xml:space="preserve"
	>
<style type="text/css">
	.st0{fill:#FFFFFF;stroke:#4EAE49;stroke-width:3;stroke-miterlimit:10;}
	.st1{fill:#FFFFFF;}
	.st2{fill:none;stroke:#4EAE49;stroke-width:3;stroke-miterlimit:10;}
	.st3{fill:#FFFFFF;stroke:#4EAE49;stroke-width:3;stroke-linecap:round;stroke-miterlimit:10;}
	.st4{fill:none;stroke:#4EAE49;stroke-width:3;stroke-linecap:round;stroke-miterlimit:10;}
	.st5{fill:none;stroke:#4EAE49;stroke-width:3;stroke-linecap:round;stroke-miterlimit:10;stroke-dasharray:5.5,5.5;}
	.st6{fill:#FFFFFF;stroke:#4EAE49;stroke-width:3;stroke-linecap:round;stroke-linejoin:round;stroke-miterlimit:10;}
	.st7{fill:#4EAE49;}
</style>
<g>
	<g>
		<path class="st0" d="M79.5,15.7L55.3,3.1c-1-0.5-2.2,0.4-1.9,1.6l16.1,52v3.8c0,2.3,1.9,4.2,4.2,4.2h48.8c2.3,0,4.1-1.8,4.1-4.1
			v-3.9l15.9-52.3c0.4-1.3-1-2.5-2.3-1.8l-22.6,12.2"/>
		<polyline class="st1" points="83.8,26.7 98.8,1.2 112.3,26.7 85.3,28.2 85.3,28.2 		"/>
		<path class="st2" d="M54.5,3.7l21.4,27.9c0.8,1,2.3,1,3-0.1l17.9-29c0.7-1.2,2.5-1.2,3.2,0.1l16.1,29.7c0.6,1.2,2.3,1.3,3.1,0.2
			l22.3-28.8"/>
		<circle class="st2" cx="98" cy="39.2" r="8.5"/>
		<line class="st3" x1="69.5" y1="56.9" x2="84" y2="56.9"/>
		<g>
			<line class="st1" x1="88.5" y1="57.1" x2="111" y2="57.1"/>
			<g>
				<line class="st4" x1="88.5" y1="57.1" x2="91.5" y2="57.1"/>
				<line class="st5" x1="97" y1="57.1" x2="105.3" y2="57.1"/>
				<line class="st4" x1="108" y1="57.1" x2="111" y2="57.1"/>
			</g>
		</g>
		<line class="st3" x1="115" y1="56.8" x2="125.5" y2="56.6"/>
		<path class="st6" d="M32.5,119.7h15l37,13.5c4.5,1.6,9.4,1.3,13.6-0.9l55.4-28.6c0,0,8-4,5-10s-13-3-13-3l-35,13l-35-12l-22-12
			h-19"/>
		<path class="st6" d="M33.5,79.7h24l24,10h21c0,0,11-0.1,11,8c0,9-9,8-9,8h-25c0,0-8-2-9,4"/>
		<path class="st3" d="M1.5,74.7h26.3c2.6,0,4.8,2.1,4.8,4.8v41.5c0,2.6-2.1,4.8-4.8,4.8H2.5"/>
		<g>
			<circle class="st1" cx="22.5" cy="114.7" r="1.5"/>
			<path class="st7" d="M22.5,111.7c-1.7,0-3,1.3-3,3s1.3,3,3,3s3-1.3,3-3S24.2,111.7,22.5,111.7L22.5,111.7z"/>
		</g>
		<g>
			<circle class="st1" cx="13.5" cy="114.7" r="1.5"/>
			<path class="st7" d="M13.5,111.7c-1.7,0-3,1.3-3,3s1.3,3,3,3s3-1.3,3-3S15.2,111.7,13.5,111.7L13.5,111.7z"/>
		</g>
	</g>
	<path class="st1" d="M69,56.2"/>
</g>
</svg>
