<?xml version="1.0" encoding="utf-8"?>
<!-- Generator: Adobe Illustrator 21.0.2, SVG Export Plug-In . SVG Version: 6.00 Build 0)  -->
<svg version="1.1" id="Isolation_Mode" xmlns="http://www.w3.org/2000/svg" xmlns:xlink="http://www.w3.org/1999/xlink" x="0px"
	 y="0px" width="135.2px" height="144px" viewBox="0 0 135.2 144" style="enable-background:new 0 0 135.2 144;"
	 xml:space="preserve">
<style type="text/css">
	.st0{fill:#FFFFFF;}
	.st1{fill:#FFFFFF;stroke:#4EAE49;stroke-width:3;stroke-linecap:round;stroke-miterlimit:10;}
</style>
<polyline class="st0" points="39.5,142.3 39.5,112.2 22.8,112.7 13.3,108.4 12.9,102.8 12.9,77.9 103.9,80.5 97.9,107.9 97.9,144 
	40.3,141.4 "/>
<path class="st1" d="M43.8,113.1h-18c0,0-13.7-0.9-13.7-9.4s0-24,0-24H4.5c-2.1,0-3.6-2.2-2.7-4.1l12-28.5c0,0-3.4-42.9,40.3-43.8"
	/>
<path class="st1" d="M34.3,56.4c0,0-2.6-54.9,44.6-54.9s45.5,47.2,45.5,47.2l9,25.6c0.6,1.8-0.7,3.6-2.6,3.6h-8.2v24
	c0,0,1.7,11.2-10.3,11.2c-7.7,0-20.6,0-20.6,0"/>
<path class="st1" d="M103,53c0,0-0.9,30.9-17.2,50.6c-3.2,3.9-2.6,36.1-2.6,36.1"/>
<line class="st1" x1="97.4" y1="113.5" x2="97.4" y2="139.7"/>
<line class="st1" x1="39.1" y1="113.5" x2="39.1" y2="139.7"/>
<path class="st1" d="M68.5,42.1l3,6.1c0.2,0.4,0.5,0.6,1,0.7l6.7,1c1,0.2,1.5,1.4,0.7,2.2L75,56.7c-0.3,0.3-0.4,0.7-0.4,1.1l1.1,6.7
	c0.2,1-0.9,1.8-1.9,1.3l-6-3.1c-0.4-0.2-0.8-0.2-1.2,0l-6,3.1c-0.9,0.5-2-0.3-1.9-1.3l1.1-6.7c0.1-0.4-0.1-0.8-0.4-1.1L54.9,52
	c-0.8-0.7-0.3-2,0.7-2.2l6.7-1c0.4-0.1,0.8-0.3,1-0.7l3-6.1C66.7,41.1,68.1,41.1,68.5,42.1z"/>
<rect x="26.8" y="63.5" class="st0" width="27" height="27"/>
</svg>
