<?xml version="1.0" encoding="utf-8"?>
<!-- Generator: Adobe Illustrator 21.0.2, SVG Export Plug-In . SVG Version: 6.00 Build 0)  -->
<svg version="1.1" id="Isolation_Mode" xmlns="http://www.w3.org/2000/svg" xmlns:xlink="http://www.w3.org/1999/xlink" x="0px"
	 y="0px" width="112px" height="128.8px" viewBox="0 0 112 128.8" style="enable-background:new 0 0 112 128.8;"
	 xml:space="preserve">
<style type="text/css">
	.st0{fill:#FFFFFF;stroke:#4EAE49;stroke-width:3;stroke-linecap:round;stroke-miterlimit:10;}
	.st1{fill:none;stroke:#4EAE49;stroke-width:3;stroke-linecap:round;stroke-miterlimit:10;}
</style>
<path class="st0" d="M103.6,1.5H8.4c-3.8,0-6.9,3.1-6.9,6.9v112c0,3.8,3.1,6.9,6.9,6.9h54.3v-23.4c0,0,10.6-1.8,18.6,10.3
	c3.5,5.3,4.6,10,4.8,13h17.5c3.8,0,6.9-3.1,6.9-6.9V8.4C110.5,4.6,107.4,1.5,103.6,1.5z"/>
<line class="st1" x1="38" y1="103.9" x2="38" y2="127.3"/>
<polyline class="st1" points="38,86.4 38,65.4 71.6,65.4 "/>
<line class="st1" x1="91.6" y1="65.4" x2="110.5" y2="65.4"/>
<line class="st1" x1="55.9" y1="65.4" x2="55.9" y2="46.1"/>
<path class="st1" d="M55.9,46.1h-26c0,0,0.4-10,9-17s17-6.4,17-6.4V1.5"/>
</svg>
