<?xml version="1.0" encoding="utf-8"?>
<!-- Generator: Adobe Illustrator 21.0.2, SVG Export Plug-In . SVG Version: 6.00 Build 0)  -->
<svg version="1.1" id="Isolation_Mode" xmlns="http://www.w3.org/2000/svg" xmlns:xlink="http://www.w3.org/1999/xlink" x="0px"
	 y="0px" width="160px" height="143px" viewBox="0 0 160 143" style="enable-background:new 0 0 160 143;" xml:space="preserve">
<style type="text/css">
	.st0{fill:#FFFFFF;}
	.st1{fill:#FFFFFF;stroke:#4EAE49;stroke-width:3;stroke-linecap:round;stroke-miterlimit:10;}
	.st2{fill:#FFFFFF;stroke:#4EAE49;stroke-width:3;stroke-linecap:round;stroke-linejoin:round;stroke-miterlimit:10;}
	.st3{fill:#4EAE49;}
</style>
<g>
	<rect x="15.5" y="107.5" class="st0" width="135" height="25"/>
	<path class="st1" d="M16.5,119.5V44.7c0-3.4,2.8-6.2,6.2-6.2h121.7c3.4,0,6.2,2.8,6.2,6.2v74.8"/>
	<polyline class="st1" points="40.5,113.5 23.5,113.5 23.5,47.5 138.5,47.5 138.5,113.5 47.5,113.5 	"/>
	<polyline class="st2" points="116.5,113 47.5,113 47.5,101.5 113.5,101.5 	"/>
	<polyline class="st1" points="56.5,97.5 67.5,86.5 67.5,47.5 56.5,35.5 56.5,30.5 70.5,30.5 70.5,22.5 89.5,22.5 89.5,30.5 
		102.5,30.5 102.5,36.5 91.5,47.5 91.5,85.5 102.5,97.5 	"/>
	<polyline class="st1" points="63.5,1.5 51.5,1.5 51.5,17.5 57.5,23.5 103.5,23.5 109.5,16.5 109.5,1.5 95.5,1.5 	"/>
	<polyline class="st1" points="58.5,11.5 72.5,11.5 72.5,1.5 88.5,1.5 88.5,11.5 99.5,11.5 	"/>
	<line class="st1" x1="92.5" y1="47.5" x2="73" y2="47.5"/>
	<line class="st1" x1="78.5" y1="30.5" x2="90.5" y2="30.5"/>
	<line class="st1" x1="78.5" y1="85.5" x2="90.5" y2="85.5"/>
	<g>
		<circle class="st0" cx="79" cy="73" r="1"/>
		<path class="st3" d="M79,70.5c-1.4,0-2.5,1.1-2.5,2.5s1.1,2.5,2.5,2.5s2.5-1.1,2.5-2.5S80.4,70.5,79,70.5L79,70.5z"/>
	</g>
	<g>
		<circle class="st0" cx="79" cy="65" r="1"/>
		<path class="st3" d="M79,62.5c-1.4,0-2.5,1.1-2.5,2.5s1.1,2.5,2.5,2.5s2.5-1.1,2.5-2.5S80.4,62.5,79,62.5L79,62.5z"/>
	</g>
	<g>
		<circle class="st0" cx="79" cy="57" r="1"/>
		<path class="st3" d="M79,54.5c-1.4,0-2.5,1.1-2.5,2.5s1.1,2.5,2.5,2.5s2.5-1.1,2.5-2.5S80.4,54.5,79,54.5L79,54.5z"/>
	</g>
	<polygon class="st1" points="66.5,131.5 61.5,125.5 1.5,125.5 1.5,131.5 12.5,141.5 147.5,141.5 158.5,132.5 158.5,125.5 
		96.5,125.5 90.5,131.5 	"/>
</g>
</svg>
