<?xml version="1.0" encoding="utf-8"?>
<!-- Generator: Adobe Illustrator 21.0.2, SVG Export Plug-In . SVG Version: 6.00 Build 0)  -->
<svg version="1.1" id="Isolation_Mode" xmlns="http://www.w3.org/2000/svg" xmlns:xlink="http://www.w3.org/1999/xlink" x="0px"
	 y="0px" width="115px" height="108.1px" viewBox="0 0 115 108.1" style="enable-background:new 0 0 115 108.1;"
	 xml:space="preserve">
<style type="text/css">
	.st0{fill:#FFFFFF;}
	.st1{fill:#FFFFFF;stroke:#4EAE49;stroke-width:3;stroke-linecap:round;stroke-miterlimit:10;}
</style>
<g>
	<rect x="76.5" y="14.6" class="st0" width="28" height="60.5"/>
	<path class="st1" d="M105.5,14.6h8v52c0,0-2,7.5-8.5,7.5s-6.5-6.5-6.5-6.5s-1-42-1-55s-12-11-12-11s-59,0-72,0s-12,13-12,13v92h76"
		/>
	<path class="st1" d="M77.5,106.6V12.6c0,0,0-10.9,11-10.9"/>
	<path class="st1" d="M104.5,73.6"/>
	<circle class="st1" cx="11.5" cy="23.6" r="0"/>
	<path class="st1" d="M63.9,33.6h-50c-0.6,0-1-0.4-1-1v-1c0-0.5,0.4-1,1-1h50c0.5,0,1,0.4,1,1v1C64.9,33.2,64.4,33.6,63.9,33.6z"/>
	<path class="st1" d="M63.9,46.6h-50c-0.6,0-1-0.4-1-1v-1c0-0.5,0.4-1,1-1h50c0.5,0,1,0.5,1,1v1C64.9,46.2,64.4,46.6,63.9,46.6z"/>
	<path class="st1" d="M63.5,59.6h-50c-0.5,0-1-0.4-1-1v-1c0-0.5,0.4-1,1-1h50c0.5,0,1,0.5,1,1v1C64.5,59.2,64.1,59.6,63.5,59.6z"/>
	<path class="st1" d="M35.5,80.3c0,0-6.8-7.1,2.9-4.7c9.7,2.4,1.9,12.9,1,12.3c-1-0.6,8.8-0.6,8.8-0.6l3.9-10l3.9,11.8
		c0,0,1.9-3.5,2.9-5.9c1-2.4,2.9-0.6,1.9-1.2"/>
</g>
</svg>
