<?xml version="1.0" encoding="utf-8"?>
<!-- Generator: Adobe Illustrator 21.0.2, SVG Export Plug-In . SVG Version: 6.00 Build 0)  -->
<svg version="1.1" id="Isolation_Mode" xmlns="http://www.w3.org/2000/svg" xmlns:xlink="http://www.w3.org/1999/xlink" x="0px"
	 y="0px" width="149px" height="163px" viewBox="0 0 149 163" style="enable-background:new 0 0 149 163;" xml:space="preserve">
<style type="text/css">
	.st0{fill:#FFFFFF;stroke:#4EAE49;stroke-width:3;stroke-linecap:round;stroke-miterlimit:10;}
	.st1{fill:#FFFFFF;}
	.st2{fill:#4EAE49;}
	.st3{fill:none;stroke:#4EAE49;stroke-width:3;stroke-linecap:round;stroke-miterlimit:10;}
</style>
<g>
	<path class="st0" d="M119.8,116.5h-93c-6.6,0-12-5.4-12-12v-58c0-6.6,5.4-12,12-12h93c6.6,0,12,5.4,12,12v58
		C131.8,111.1,126.3,116.5,119.8,116.5z"/>
	<path class="st0" d="M117.3,105.5h-88c-3,0-5.5-2.5-5.5-5.5V50c0-3,2.5-5.5,5.5-5.5h88c3,0,5.5,2.5,5.5,5.5v50
		C122.8,103,120.3,105.5,117.3,105.5z"/>
	<rect x="64.3" y="99.5" class="st1" width="19" height="11"/>
	<g>
		<circle class="st1" cx="68.8" cy="105.5" r="1.5"/>
		<path class="st2" d="M68.8,104c-0.8,0-1.5,0.7-1.5,1.5s0.7,1.5,1.5,1.5s1.5-0.7,1.5-1.5S69.6,104,68.8,104L68.8,104z"/>
	</g>
	<g>
		<circle class="st1" cx="73.8" cy="105.5" r="1.5"/>
		<path class="st2" d="M73.8,104c-0.8,0-1.5,0.7-1.5,1.5s0.7,1.5,1.5,1.5s1.5-0.7,1.5-1.5S74.6,104,73.8,104L73.8,104z"/>
	</g>
	<g>
		<circle class="st1" cx="78.8" cy="105.5" r="1.5"/>
		<path class="st2" d="M78.8,104c-0.8,0-1.5,0.7-1.5,1.5s0.7,1.5,1.5,1.5s1.5-0.7,1.5-1.5S79.6,104,78.8,104L78.8,104z"/>
	</g>
	<polyline class="st3" points="53.8,14.5 71.8,33.5 101.8,1.5 	"/>
	<polygon class="st0" points="72.3,58.1 77.8,69.4 90.2,71.2 81.2,79.9 83.3,92.3 72.3,86.4 61.2,92.3 63.3,79.9 54.3,71.2 
		66.7,69.4 	"/>
	<path class="st0" d="M143.8,142.5H5.3c-2.1,0-3.8-1.7-3.8-3.8v-7.5c0-2.1,1.7-3.8,3.8-3.8h138.5c2.1,0,3.8,1.7,3.8,3.8v7.5
		C147.5,140.8,145.8,142.5,143.8,142.5z"/>
	<polyline class="st0" points="15,161.5 15,142.5 134,142.5 134,160.5 	"/>
</g>
<rect x="52.8" y="116.5" class="st0" width="42" height="11"/>
</svg>
